{
  "accessors": [
    {
      "bufferView": 2,
      "componentType": 5126,
      "count": 945,
      "max": [
        0.1513151228427887,
        0.28553831577301025,
        0.12610110640525818
      ],
      "min": [
        -0.14821338653564453,
        0.0005018571391701698,
        -0.0006200000061653554
      ],
      "type": "VEC3"
    },
    {
      "bufferView": 2,
      "byteOffset": 11340,
      "componentType": 5126,
      "count": 945,
      "max": [
        0.9997559785842896,
        0.9311800003051758,
        0.9998118281364441
      ],
      "min": [
        -0.9913751482963562,
        -0.9939286112785339,
        -0.6761993765830994
      ],
      "type": "VEC3"
    },
    {
      "bufferView": 3,
      "componentType": 5126,
      "count": 945,
      "max": [
        0.4194380044937134,
        0.5519025325775146,
        0.988903820514679,
        -1.0
      ],
      "min": [
        -0.8054105639457703,
        -0.9944324493408203,
        -0.9888343811035156,
        -1.0
      ],
      "type": "VEC4"
    },
    {
      "bufferView": 1,
      "componentType": 5126,
      "count": 945,
      "max": [
        0.983269989490509,
        0.9997599720954895
      ],
      "min": [
        0.00023999999393709004,
        0.0002499818801879883
      ],
      "type": "VEC2"
    },
    {
      "bufferView": 1,
      "byteOffset": 7560,
      "componentType": 5126,
      "count": 945,
      "max": [
        0.983269989490509,
        0.9997599720954895
      ],
      "min": [
        0.00023999999393709004,
        0.0002499818801879883
      ],
      "type": "VEC2"
    },
    {
      "bufferView": 0,
      "componentType": 5125,
      "count": 5325,
      "type": "SCALAR"
    }
  ],
  "asset": {
    "extras": {
      "author": "David Wigforss (https://sketchfab.com/dwigfor)",
      "license": "CC-BY-NC-4.0 (http://creativecommons.org/licenses/by-nc/4.0/)",
      "source": "https://sketchfab.com/3d-models/jack-skeleton-nightmare-before-christmas-mask-5d5f3deb346b4d1ea160333087a52596",
      "title": "Jack Skeleton (Nightmare Before Christmas) Mask"
    },
    "generator": "Sketchfab-15.36.0",
    "version": "2.0"
  },
  "bufferViews": [
    {
      "buffer": 0,
      "byteLength": 21300,
      "name": "floatBufferViews",
      "target": 34963
    },
    {
      "buffer": 0,
      "byteLength": 15120,
      "byteOffset": 21300,
      "byteStride": 8,
      "name": "floatBufferViews",
      "target": 34962
    },
    {
      "buffer": 0,
      "byteLength": 22680,
      "byteOffset": 36420,
      "byteStride": 12,
      "name": "floatBufferViews",
      "target": 34962
    },
    {
      "buffer": 0,
      "byteLength": 15120,
      "byteOffset": 59100,
      "byteStride": 16,
      "name": "floatBufferViews",
      "target": 34962
    }
  ],
  "buffers": [
    {
      "byteLength": 74220,
      "uri": "scene.bin"
    }
  ],
  "images": [
    {
      "uri": "textures/MAT_Prop_SkeletonInCoffinInsidePumpkin_baseColor.jpeg"
    },
    {
      "uri": "textures/MAT_Prop_SkeletonInCoffinInsidePumpkin_normal.png"
    }
  ],
  "materials": [
    {
      "doubleSided": true,
      "name": "MAT_Prop_SkeletonInCoffinInsidePumpkin",
      "normalTexture": {
        "index": 1
      },
      "pbrMetallicRoughness": {
        "baseColorTexture": {
          "index": 0
        },
        "metallicFactor": 0.0,
        "roughnessFactor": 0.9577051494623774
      }
    }
  ],
  "meshes": [
    {
      "name": "geo1_MAT_Prop_SkeletonInCoffinInsidePumpkin_0",
      "primitives": [
        {
          "attributes": {
            "NORMAL": 1,
            "POSITION": 0,
            "TANGENT": 2,
            "TEXCOORD_0": 3,
            "TEXCOORD_1": 4
          },
          "indices": 5,
          "material": 0,
          "mode": 4
        }
      ]
    }
  ],
  "nodes": [
    {
      "children": [
        1
      ],
      "matrix": [
        1.0,
        0.0,
        0.0,
        0.0,
        0.0,
        2.220446049250313e-16,
        -1.0,
        0.0,
        0.0,
        1.0,
        2.220446049250313e-16,
        0.0,
        0.0,
        0.0,
        0.0,
        1.0
      ],
      "name": "Sketchfab_model"
    },
    {
      "children": [
        2
      ],
      "matrix": [
        0.009999999776482582,
        0.0,
        0.0,
        0.0,
        0.0,
        0.0,
        0.009999999776482582,
        0.0,
        0.0,
        -0.009999999776482582,
        0.0,
        0.0,
        0.0,
        0.0,
        0.0,
        1.0
      ],
      "name": "mesh.fbx"
    },
    {
      "children": [
        3
      ],
      "name": "RootNode"
    },
    {
      "children": [
        4
      ],
      "name": "geo1"
    },
    {
      "mesh": 0,
      "name": "geo1_MAT_Prop_SkeletonInCoffinInsidePumpkin_0"
    }
  ],
  "samplers": [
    {
      "magFilter": 9729,
      "minFilter": 9987,
      "wrapS": 10497,
      "wrapT": 10497
    }
  ],
  "scene": 0,
  "scenes": [
    {
      "name": "Sketchfab_Scene",
      "nodes": [
        0
      ]
    }
  ],
  "textures": [
    {
      "sampler": 0,
      "source": 0
    },
    {
      "sampler": 0,
      "source": 1
    }
  ]
}
